<?xml version="1.0" standalone="no"?>
<!DOCTYPE svg PUBLIC "-//W3C//DTD SVG 20010904//EN"
 "http://www.w3.org/TR/2001/REC-SVG-20010904/DTD/svg10.dtd">
<svg version="1.0" xmlns="http://www.w3.org/2000/svg"
 width="225.000000pt" height="49.000000pt" viewBox="0 0 225.000000 49.000000"
 preserveAspectRatio="xMidYMid meet">
<metadata>
Created by potrace 1.10, written by Peter Selinger 2001-2011
</metadata>
<g transform="translate(0.000000,49.000000) scale(0.100000,-0.100000)"
fill="#000000" stroke="none">
<path d="M1320 395 c0 -20 5 -25 25 -25 20 0 25 5 25 25 0 20 -5 25 -25 25
-20 0 -25 -5 -25 -25z"/>
<path d="M2030 245 l0 -175 25 0 25 0 0 175 0 175 -25 0 -25 0 0 -175z"/>
<path d="M70 385 c0 -24 3 -25 55 -25 l55 0 0 -145 c0 -138 1 -145 20 -145 19
0 20 7 20 145 l0 145 55 0 c52 0 55 1 55 25 l0 25 -130 0 -130 0 0 -25z"/>
<path d="M376 304 c-12 -12 -16 -37 -16 -109 0 -122 3 -125 121 -125 88 0 89
0 89 25 0 25 -1 25 -85 25 -84 0 -85 0 -85 25 0 25 1 25 85 25 l85 0 0 59 c0
81 -12 91 -105 91 -54 0 -78 -4 -89 -16z m154 -59 c0 -24 -2 -25 -65 -25 -63
0 -65 1 -65 25 0 24 2 25 65 25 63 0 65 -1 65 -25z"/>
<path d="M650 195 c0 -118 1 -125 20 -125 19 0 20 7 20 100 l0 100 50 0 c43 0
50 -3 50 -20 0 -14 7 -20 23 -20 21 0 23 4 19 33 -2 17 -9 38 -14 45 -15 18
-88 15 -110 -5 -17 -15 -18 -15 -18 0 0 10 -8 17 -20 17 -19 0 -20 -7 -20
-125z"/>
<path d="M890 195 l0 -125 25 0 c25 0 25 0 25 100 l0 100 56 0 57 0 -6 -100
-5 -100 24 0 c24 0 24 1 24 100 l0 100 55 0 55 0 0 -100 c0 -93 1 -100 20
-100 19 0 20 7 20 115 0 103 -2 115 -19 125 -30 16 -97 12 -116 -6 -15 -15
-17 -15 -34 0 -27 25 -95 21 -122 -6 l-21 -23 7 23 c5 19 3 22 -19 22 l-26 0
0 -125z"/>
<path d="M1320 195 c0 -123 0 -125 23 -125 22 0 22 2 22 125 0 123 0 125 -22
125 -23 0 -23 -2 -23 -125z"/>
<path d="M1440 195 l0 -125 25 0 c25 0 25 0 25 100 l0 100 65 0 65 0 0 -100
c0 -93 1 -100 20 -100 19 0 20 7 20 113 0 75 -4 117 -12 125 -7 7 -38 12 -69
12 -48 0 -60 -4 -73 -22 l-16 -22 0 22 c0 17 -6 22 -25 22 l-25 0 0 -125z"/>
<path d="M1760 295 c0 -24 2 -25 75 -25 68 0 75 -2 75 -20 0 -18 -7 -20 -69
-20 -61 0 -72 -3 -85 -22 -9 -12 -16 -38 -16 -58 0 -58 22 -80 82 -80 34 0 58
6 70 17 17 15 18 15 18 0 0 -10 8 -17 20 -17 19 0 20 7 20 113 0 75 -4 117
-12 125 -7 7 -44 12 -95 12 -82 0 -83 0 -83 -25z m150 -145 l0 -30 -62 0 -63
0 0 30 0 30 63 0 62 0 0 -30z"/>
</g>
</svg>
